Coordinates
version=1
nRows=14
nColumns=36
inDegrees=yes

Units are S.I. units (second, meters, Newtons, ...)
If the header above contains a line with 'inDegrees', this indicates whether rotational values are in degrees (yes) or radians (no).

endheader
time	pelvis_tilt	pelvis_list	pelvis_rotation	pelvis_tx	pelvis_ty	pelvis_tz	hip_flexion_r	hip_adduction_r	hip_rotation_r	knee_angle_r	knee_angle_r_beta	ankle_angle_r	subtalar_angle_r	mtp_angle_r	hip_flexion_l	hip_adduction_l	hip_rotation_l	knee_angle_l	knee_angle_l_beta	ankle_angle_l	subtalar_angle_l	mtp_angle_l	lumbar_extension	lumbar_bending	lumbar_rotation	arm_flex_r	arm_add_r	arm_rot_r	elbow_flex_r	pro_sup_r	arm_flex_l	arm_add_l	arm_rot_l	elbow_flex_l	pro_sup_l
      0.00000000	    -16.10470888	     -0.42648172	     -1.62462130	     -0.91903908	      1.19462171	     -0.07619344	     31.91133133	     -2.32467077	      1.98864446	     27.90168534	      0.48697628	      7.32769375	     -8.28270264	     -5.56170867	     27.88016023	     -7.59522142	    -10.80103688	     22.66282617	      0.39554093	      7.31532522	      3.06038413	     -5.56170867	    -20.08313660	      2.90498858	      0.50561905	      2.86355434	    -17.53730946	     15.78911046	     26.04827337	     69.02356359	      4.92239803	    -11.00927387	     15.24692573	     30.25317748	     69.00623767
      0.00416670	    -18.31115630	      1.45183102	     -1.60131806	     -0.91883687	      1.19174455	     -0.07498027	     35.10566583	     -3.86283727	      2.90667355	     29.23006265	      0.51016083	     13.04012859	     -2.32376161	     -5.79111657	     30.85335419	     -5.22079274	    -10.30142218	     24.56165375	      0.42868173	     10.54049842	      6.79441343	     -5.79111657	    -17.07237376	      1.15977228	      0.22578749	      3.10071876	    -15.20577365	     15.68909850	     20.38714247	     68.04758594	      4.99244076	    -10.60277027	     13.49536771	     27.43186020	     67.98662662
      0.00833330	    -18.85455025	      2.35404990	     -2.60784191	     -0.91908028	      1.19177433	     -0.07316739	     35.78583656	     -4.29931482	      3.20015517	     29.20207352	      0.50967233	     13.97326716	     -1.57575853	     -6.46923975	     31.20132523	     -5.15554545	    -10.76713692	     24.63361245	      0.42993764	     10.89057153	      7.05568446	     -6.46923975	    -16.34441103	     -0.14716929	      0.67211942	      3.30510283	    -15.30914049	     22.38172770	     19.05835754	     63.74257284	      4.45581073	    -10.79755951	     14.86766849	     26.82132604	     67.67558357
      0.01250000	    -18.20900976	      2.54808548	     -3.23773266	     -0.91942800	      1.19379180	     -0.07261470	     35.30991533	     -4.34986082	      3.06963492	     29.32710925	      0.51185462	     14.54906620	     -0.15496864	     -6.60498919	     29.85496656	     -5.09888381	    -10.90435580	     23.32164075	      0.40703942	     11.08028511	      7.17417025	     -6.60498919	    -17.25545702	     -0.32710963	      1.32512596	      3.56426629	    -16.02523326	     24.70076302	     19.08960150	     63.81649557	      4.77090925	    -10.76791006	     16.90468671	     26.76636920	     67.67748429
      0.01666670	    -18.04580649	      2.64443713	     -3.65470292	     -0.91990283	      1.19474528	     -0.07206475	     35.35232519	     -4.26548618	      3.16248635	     29.51735317	      0.51517500	     15.06311191	      0.50724709	     -6.66658330	     29.24289231	     -5.10790233	    -11.24443718	     22.36346007	      0.39031601	     11.08248951	      7.55060502	     -6.66658330	    -17.61295682	     -0.38317361	      1.65504697	      3.69873624	    -16.39340574	     25.44972440	     19.07425824	     63.78943385	      4.86666356	    -10.66207693	     17.63647986	     26.59765150	     67.55309261
      0.02083330	    -17.65500323	      2.58984893	     -3.69479773	     -0.92014441	      1.19585588	     -0.07220560	     34.85872434	     -4.30715172	      2.99740308	     29.52335719	      0.51527979	     15.36147513	      1.07186732	     -6.78266572	     28.74074478	     -5.10750058	    -11.61720641	     21.71246753	      0.37895405	     10.97621847	      7.64299234	     -6.78266572	    -18.25877612	     -0.20261375	      1.92250045	      4.14297720	    -16.94276197	     28.59375767	     19.13288561	     63.54920916	      5.31804076	    -10.71329046	     21.11764323	     26.09908841	     66.61048975
      0.02500000	    -17.36774857	      2.54050205	     -3.68600061	     -0.92053539	      1.19660946	     -0.07215048	     34.53581120	     -4.37856198	      2.84966649	     29.55716771	      0.51586989	     15.55750426	      1.25957453	     -6.82308834	     28.48449603	     -5.11325413	    -11.85813284	     21.59758553	      0.37694898	     10.77301778	      7.39296127	     -6.82308834	    -18.92485897	     -0.10483935	      2.20713054	      4.51732851	    -17.23354715	     29.28724701	     19.22689288	     63.25910744	      5.65241544	    -10.55128353	     21.66259184	     26.47455785	     66.03173890
      0.02916670	    -17.37596509	      2.52870430	     -3.67038839	     -0.92072415	      1.19703230	     -0.07226035	     34.51896463	     -4.42438022	      2.77726326	     29.58559379	      0.51636602	     15.61738200	      1.32524875	     -6.87540269	     28.65596492	     -5.15012391	    -12.17729559	     21.63693371	      0.37763573	     10.46127915	      7.31294832	     -6.87540269	    -19.04718770	     -0.11600627	      2.35601583	      4.70971687	    -17.31423298	     29.69973943	     19.19437130	     62.95149650	      5.59118733	    -10.50181657	     21.87010309	     26.57800920	     65.38996222
      0.03333330	    -16.83648601	      2.49310320	     -3.64302077	     -0.92106920	      1.19817817	     -0.07238583	     33.99989027	     -4.40033969	      2.96183020	     29.72232489	      0.51875243	     15.49712815	      0.84985016	     -6.93721022	     28.07651091	     -5.10962987	    -12.34340247	     21.45420178	      0.37444646	     10.07778217	      7.24511408	     -6.93721022	    -19.96739847	     -0.07709136	      2.55617413	      5.04021546	    -17.74162135	     31.18519856	     19.57167924	     62.64357076	      6.14172474	    -10.52962760	     22.88570778	     26.76719567	     64.72844069
      0.03750000	    -16.66992369	      2.44734564	     -3.64580202	     -0.92131665	      1.19894949	     -0.07246817	     33.84480904	     -4.38554217	      2.91043180	     29.77997461	      0.51975861	     15.33950615	      0.69270921	     -7.05702470	     27.90977952	     -5.14013366	    -12.51589003	     21.36240905	      0.37284437	      9.92980731	      7.36639944	     -7.05702470	    -20.36371758	     -0.06540158	      2.61713054	      5.42310021	    -17.89552445	     32.83553493	     19.52609016	     61.92795061	      6.53083145	    -10.60959374	     23.93500643	     26.83674688	     63.88438946
      0.04166670	    -16.56874461	      2.49842104	     -3.66691109	     -0.92161777	      1.19917778	     -0.07240175	     33.92702442	     -4.37832248	      3.11782356	     30.09849912	      0.52531791	     15.27635730	      0.33528353	     -7.11363551	     27.77348474	     -5.07976606	    -12.66067556	     21.22717681	      0.37048413	      9.71619363	      7.32886722	     -7.11363551	    -20.59482950	     -0.15070543	      2.71297858	      5.59151580	    -17.90763060	     33.20757398	     19.45607980	     61.47998475	      6.71772540	    -10.63104789	     23.92250915	     27.08791389	     63.31936526
      0.04583330	    -15.88852746	      2.31699558	     -3.46954802	     -0.91561157	      1.20047930	     -0.06850140	     32.61846155	     -4.22261987	      2.92091907	     29.41272925	      0.51334897	     15.12348196	      0.35292177	     -7.12484986	     26.65492328	     -5.20011718	    -12.72998397	     20.73096492	      0.36182360	      9.61574515	      7.68494680	     -7.12484986	    -21.40513730	     -0.11388761	      2.91415494	      5.49890417	    -17.93367152	     34.01049822	     19.58866692	     61.34792477	      7.01834951	    -10.75569624	     24.24160677	     27.15797564	     63.26088959
      0.05000000	    -15.90479163	      2.37123977	     -3.53062611	     -0.92215625	      1.20027072	     -0.07267883	     32.63355736	     -4.29097132	      2.86013012	     29.30416099	      0.51145409	     15.19589794	      0.30174650	     -7.12529394	     26.66598403	     -5.15487858	    -12.78402221	     20.74552673	      0.36207775	      9.58880183	      7.70737382	     -7.12529394	    -21.38325430	     -0.13061491	      2.92935988	      5.60717786	    -17.97316102	     34.03008647	     19.60292897	     61.34007135	      7.15082986	    -10.73017527	     24.24663780	     27.21037396	     63.25904852
      0.05416670	    -15.59068367	      2.24081008	     -3.43485493	     -0.92218273	      1.20126207	     -0.07270455	     32.28767788	     -4.16554879	      2.94254607	     29.21303753	      0.50986369	     15.05872695	     -0.19036167	     -7.18311426	     26.29663126	     -5.26267425	    -12.72852673	     20.77050155	      0.36251364	      9.66761081	      8.09583760	     -7.18311426	    -22.01948252	     -0.01280000	      3.03293257	      5.82429500	    -18.21224500	     35.25656695	     19.74735804	     60.83712674	      7.50074065	    -10.82009170	     24.59247710	     27.58913725	     62.89189723
